<svg width="64" height="64" viewBox="0 0 64 64" fill="none" xmlns="http://www.w3.org/2000/svg">
<path d="M2 52V32C2 24.0435 5.1607 16.4129 10.7868 10.7868C16.4129 5.16071 24.0435 2 32 2C39.9565 2 47.5871 5.16071 53.2132 10.7868C58.8393 16.4129 62 24.0435 62 32V52M62 55.3333C62 57.1014 61.2976 58.7971 60.0474 60.0474C58.7971 61.2976 57.1014 62 55.3333 62H52C50.2319 62 48.5362 61.2976 47.286 60.0474C46.0357 58.7971 45.3333 57.1014 45.3333 55.3333V45.3333C45.3333 43.5652 46.0357 41.8695 47.286 40.6193C48.5362 39.369 50.2319 38.6667 52 38.6667H62V55.3333ZM2 55.3333C2 57.1014 2.70238 58.7971 3.95262 60.0474C5.20286 61.2976 6.89856 62 8.66667 62H12C13.7681 62 15.4638 61.2976 16.714 60.0474C17.9643 58.7971 18.6667 57.1014 18.6667 55.3333V45.3333C18.6667 43.5652 17.9643 41.8695 16.714 40.6193C15.4638 39.369 13.7681 38.6667 12 38.6667H2V55.3333Z" stroke="#E2EDB9" stroke-width="4" stroke-linecap="round" stroke-linejoin="round"/>
</svg>
