<svg width="22" height="46" viewBox="0 0 22 46" fill="none" xmlns="http://www.w3.org/2000/svg">
<path d="M9.36022 3.2992C14.7935 8.52461 17.8455 15.6109 17.8455 22.9996C17.8455 30.3884 14.7937 37.4754 9.36022 42.7009C8.57524 43.4558 8.57502 44.6793 9.36022 45.434C10.1453 46.1886 11.418 46.1886 12.2031 45.434C18.3904 39.4836 21.8664 31.4135 21.8664 22.9996C21.8663 14.5858 18.3903 6.51639 12.2031 0.566032C11.4181 -0.188733 10.1454 -0.188621 9.36022 0.566032C8.57517 1.32076 8.57529 2.54432 9.36022 3.2992Z" fill="#E2EDB9"/>
<path d="M4.1899 16.9084C5.02453 18.8442 5.45424 20.9192 5.45426 23.0147C5.45426 25.1101 5.02449 27.1852 4.1899 29.1209C3.35523 31.0567 2.13133 32.8156 0.589236 34.2965C-0.196163 35.0509 -0.196333 36.2745 0.588254 37.0297C1.37292 37.7849 2.64554 37.786 3.43109 37.0316C5.34703 35.1916 6.86743 33.0068 7.90444 30.6017C8.94146 28.1966 9.47507 25.6182 9.47507 23.0147C9.47506 20.4111 8.94144 17.8327 7.90444 15.4277C6.86743 13.0226 5.34697 10.8376 3.43109 8.99771C2.64556 8.24349 1.37288 8.2445 0.588254 8.9996C-0.19633 9.75476 -0.196047 10.9783 0.589236 11.7328C2.13133 13.2137 3.35523 14.9726 4.1899 16.9084Z" fill="#E2EDB9"/>
</svg>
