<svg width="22" height="46" viewBox="0 0 22 46" fill="none" xmlns="http://www.w3.org/2000/svg">
<path d="M0 22.9996C8.98564e-05 14.5858 3.47605 6.51643 9.66329 0.566073C10.4483 -0.188774 11.7209 -0.188607 12.5061 0.566073C13.2912 1.32074 13.2919 2.54432 12.5071 3.29924C7.07366 8.52467 4.0209 15.6108 4.02081 22.9996C4.02081 30.3884 7.07358 37.4754 12.5071 42.7009C13.2918 43.4558 13.2913 44.6794 12.5061 45.434C11.721 46.1886 10.4483 46.1887 9.66329 45.434C3.47597 39.4836 0 31.4135 0 22.9996ZM12.3913 22.9854C12.3913 20.3819 12.9259 17.8035 13.9629 15.3984C14.9999 12.9934 16.5194 10.8084 18.4353 8.96849C19.2207 8.21421 20.4934 8.21456 21.2781 8.96944C22.0628 9.72468 22.0627 10.9491 21.2771 11.7035C19.7351 13.1844 18.5111 14.9426 17.6764 16.8783C16.8418 18.8141 16.4121 20.8899 16.4121 22.9854C16.4121 25.0808 16.8418 27.156 17.6764 29.0916C18.5111 31.0274 19.7351 32.7855 21.2771 34.2664C22.0627 35.0208 22.0628 36.2452 21.2781 37.0005C20.4934 37.7554 19.2207 37.7557 18.4353 37.0014C16.5194 35.1615 14.9999 32.9765 13.9629 30.5715C12.9259 28.1665 12.3913 25.5888 12.3913 22.9854Z" fill="#E2EDB9"/>
</svg>
